<svg width="396" height="315" viewBox="0 0 396 315" fill="none" xmlns="http://www.w3.org/2000/svg">
<ellipse cx="325.5" cy="172" rx="44.5" ry="44" fill="#10C2E9"/>
<path d="M396 284.336C396 317.106 364.436 310.443 325.5 310.443C286.564 310.443 255 317.106 255 284.336C255 251.565 286.564 225 325.5 225C364.436 225 396 251.565 396 284.336Z" fill="#10C2E9"/>
<ellipse cx="70.5" cy="172" rx="44.5" ry="44" fill="#10C2E9"/>
<path d="M141 284.336C141 317.106 109.436 310.443 70.5 310.443C31.5639 310.443 0 317.106 0 284.336C0 251.565 31.5639 225 70.5 225C109.436 225 141 251.565 141 284.336Z" fill="#10C2E9"/>
<circle cx="199.393" cy="75.9486" r="75.9486" fill="#10C2E9"/>
<path d="M320.164 269.448C320.164 325.431 265.954 314.049 199.082 314.049C132.21 314.049 78 325.431 78 269.448C78 213.466 132.21 168.083 199.082 168.083C265.954 168.083 320.164 213.466 320.164 269.448Z" fill="#10C2E9"/>
</svg>
