<svg width="48" height="45" viewBox="0 0 48 45" fill="none" xmlns="http://www.w3.org/2000/svg">
<path d="M48 9.60003V11.2C48 11.4122 47.9157 11.6157 47.7657 11.7657C47.6157 11.9157 47.4122 12 47.2 12H44.8V13.2C44.8 13.8627 44.2627 14.4 43.6 14.4H4.4C3.7373 14.4 3.2 13.8627 3.2 13.2V12H0.8C0.587827 12 0.384344 11.9157 0.234315 11.7657C0.0842854 11.6157 0 11.4122 0 11.2V9.60003C1.14414e-06 9.44176 0.0469478 9.28704 0.1349 9.15546C0.222852 9.02388 0.347858 8.92134 0.4941 8.86083L23.6941 0.0608271C23.89 -0.0202757 24.11 -0.0202757 24.3059 0.0608271L47.5059 8.86083C47.6521 8.92134 47.7771 9.02388 47.8651 9.15546C47.9531 9.28704 48 9.44176 48 9.60003ZM45.6 40H2.4C1.0745 40 0 41.0745 0 42.4V44C0 44.2122 0.0842854 44.4157 0.234315 44.5657C0.384344 44.7157 0.587827 44.8 0.8 44.8H47.2C47.4122 44.8 47.6157 44.7157 47.7657 44.5657C47.9157 44.4157 48 44.2122 48 44V42.4C48 41.0745 46.9255 40 45.6 40ZM8 16V35.2H4.4C3.7373 35.2 3.2 35.7373 3.2 36.4V38.4H44.8V36.4C44.8 35.7373 44.2627 35.2 43.6 35.2H40V16H33.6V35.2H27.2V16H20.8V35.2H14.4V16H8Z" fill="#2CC032"/>
</svg>
